<?xml version="1.0" encoding="utf-8"?>
<!-- Generator: Adobe Illustrator 23.0.3, SVG Export Plug-In . SVG Version: 6.00 Build 0)  -->
<svg version="1.1" id="Capa_1" xmlns="http://www.w3.org/2000/svg" xmlns:xlink="http://www.w3.org/1999/xlink" x="0px" y="0px"
	 viewBox="0 0 1200 1200" enable-background="new 0 0 1200 1200" xml:space="preserve">
<g>
	<path fill="#FFFFFF" d="M1148.651,601.349C1148.651,904.361,903.011,1150,600,1150S51.349,904.361,51.349,601.349
		S296.989,52.699,600,52.699S1148.651,298.338,1148.651,601.349z"/>
	<path d="M599.999,50C466.644,50,338.1,98.433,238.048,186.377C138.914,273.514,74.488,393.151,56.639,523.25
		c-3.398,24.759-5.119,50.069-5.119,75.231c0,302.433,246.047,548.48,548.48,548.48s548.481-246.047,548.481-548.48
		S902.432,50,599.999,50z M662.34,1036.016l-126.057-97.945l25.178-134.882l206.044-93.571l117.745,67.411l-7.259,161.476
		L662.34,1036.016z M899.451,750.925l-117.089-67.036l-20.804-223.173l94.841-87.344l148.389,55.756l24.346,225.669L899.451,750.925
		z M786.044,196.177l49.973,155.576l-94.495,87.027l-223.349-42.588l-58.437-125.867l101.301-122.103L786.044,196.177z
		 M273.351,289.648l159.655-6.345l58.247,125.454L381.706,606.13l-130.6,10.735L163.01,481.541L273.351,289.648z M254.576,646.389
		l130.207-10.702l147.534,161.721l-25.102,134.471l-158.382,35.298L204.695,800.573L254.576,646.389z M669.267,1065.489
		l226.022-102.2l69.887,3.292c-88.67,87.972-208.841,144.215-341.887,150.124L669.267,1065.489z M1059.178,656.305l-25.268-234.206
		l32.654-50.282c33.423,68.52,52.208,145.436,52.208,226.664c0,42.21-5.104,83.244-14.663,122.555L1059.178,656.305z
		 M854.504,146.573l-58.06,21.444L562.44,118.145l-35.797-33.181c24.022-3.453,48.515-5.255,73.356-5.255
		C692.425,79.709,779.265,104.032,854.504,146.573z M249.708,216.507v54.657L134.56,471.416l-43.761,27.543
		C112.461,387.633,169.784,289.678,249.708,216.507z M118.387,791.241l60.666,25.102l150.213,173.624l7.36,55.285
		C238.63,987.262,161.261,897.978,118.387,791.241z"/>
</g>
</svg>
